<svg xmlns="http://www.w3.org/2000/svg" xmlns:xlink="http://www.w3.org/1999/xlink" width="500" zoomAndPan="magnify" viewBox="0 0 375 374.999991" height="500" preserveAspectRatio="xMidYMid meet" version="1.2"><defs><clipPath id="34fad48d66"><path d="M 295.554688 256.121094 L 333.054688 256.121094 L 333.054688 299.421875 L 295.554688 299.421875 Z M 295.554688 256.121094 "/></clipPath></defs><g id="ea46b145e4"><rect x="0" width="375" y="0" height="374.999991" style="fill:#ffffff;fill-opacity:1;stroke:none;"/><rect x="0" width="375" y="0" height="374.999991" style="fill:#ffffff;fill-opacity:1;stroke:none;"/><g style="fill:#cb6ce6;fill-opacity:1;"><g transform="translate(112.510521, 209.249986)"><path style="stroke:none" d="M 15.90625 0 C 12.644531 0 10.207031 -0.785156 8.59375 -2.359375 C 6.988281 -3.929688 6.1875 -6.191406 6.1875 -9.140625 L 6.1875 -23.578125 L 1.171875 -23.578125 L 1.171875 -31.234375 L 6.1875 -31.234375 L 7.375 -39.484375 L 14.4375 -39.484375 L 14.4375 -31.234375 L 21.8125 -31.234375 L 21.8125 -23.578125 L 14.4375 -23.578125 L 14.4375 -10.609375 C 14.4375 -9.703125 14.703125 -8.984375 15.234375 -8.453125 C 15.765625 -7.921875 16.484375 -7.65625 17.390625 -7.65625 L 21.8125 -7.65625 L 21.8125 0 Z M 15.90625 0 "/></g></g><g style="fill:#373643;fill-opacity:1;"><g transform="translate(116.174806, 209.249986)"><path style="stroke:none" d="M 15.90625 0 C 12.644531 0 10.207031 -0.785156 8.59375 -2.359375 C 6.988281 -3.929688 6.1875 -6.191406 6.1875 -9.140625 L 6.1875 -23.578125 L 1.171875 -23.578125 L 1.171875 -31.234375 L 6.1875 -31.234375 L 7.375 -39.484375 L 14.4375 -39.484375 L 14.4375 -31.234375 L 21.8125 -31.234375 L 21.8125 -23.578125 L 14.4375 -23.578125 L 14.4375 -10.609375 C 14.4375 -9.703125 14.703125 -8.984375 15.234375 -8.453125 C 15.765625 -7.921875 16.484375 -7.65625 17.390625 -7.65625 L 21.8125 -7.65625 L 21.8125 0 Z M 15.90625 0 "/></g></g><g style="fill:#373643;fill-opacity:1;"><g transform="translate(138.098068, 209.249986)"><path style="stroke:none" d="M 12.671875 0.59375 C 10.984375 0.59375 9.460938 0.347656 8.109375 -0.140625 C 6.753906 -0.640625 5.601562 -1.320312 4.65625 -2.1875 C 3.707031 -3.050781 2.988281 -4.070312 2.5 -5.25 C 2.007812 -6.425781 1.765625 -7.722656 1.765625 -9.140625 C 1.765625 -10.546875 2.019531 -11.835938 2.53125 -13.015625 C 3.039062 -14.203125 3.804688 -15.226562 4.828125 -16.09375 C 5.847656 -16.957031 7.101562 -17.632812 8.59375 -18.125 C 10.09375 -18.613281 11.84375 -18.859375 13.84375 -18.859375 L 21.21875 -18.859375 L 21.21875 -20.328125 C 21.21875 -21.828125 20.742188 -22.9375 19.796875 -23.65625 C 18.859375 -24.382812 17.5625 -24.75 15.90625 -24.75 C 14.726562 -24.75 13.726562 -24.492188 12.90625 -23.984375 C 12.082031 -23.472656 11.515625 -22.847656 11.203125 -22.109375 L 2.953125 -22.109375 C 3.222656 -23.359375 3.703125 -24.5625 4.390625 -25.71875 C 5.078125 -26.882812 5.957031 -27.914062 7.03125 -28.8125 C 8.113281 -29.71875 9.410156 -30.445312 10.921875 -31 C 12.441406 -31.550781 14.203125 -31.828125 16.203125 -31.828125 C 20.367188 -31.828125 23.617188 -30.820312 25.953125 -28.8125 C 28.296875 -26.8125 29.46875 -23.882812 29.46875 -20.03125 L 29.46875 0 L 22.390625 0 L 21.515625 -3.53125 L 21.21875 -3.53125 C 20.90625 -3.101562 20.507812 -2.644531 20.03125 -2.15625 C 19.5625 -1.664062 18.972656 -1.210938 18.265625 -0.796875 C 17.554688 -0.378906 16.738281 -0.046875 15.8125 0.203125 C 14.894531 0.460938 13.847656 0.59375 12.671875 0.59375 Z M 14.734375 -6.1875 C 16.660156 -6.1875 18.222656 -6.726562 19.421875 -7.8125 C 20.617188 -8.894531 21.21875 -10.316406 21.21875 -12.078125 L 21.21875 -12.96875 L 14.140625 -12.96875 C 12.648438 -12.96875 11.585938 -12.648438 10.953125 -12.015625 C 10.328125 -11.390625 10.015625 -10.625 10.015625 -9.71875 C 10.015625 -8.695312 10.390625 -7.851562 11.140625 -7.1875 C 11.890625 -6.519531 13.085938 -6.1875 14.734375 -6.1875 Z M 14.734375 -6.1875 "/></g></g><g style="fill:#373643;fill-opacity:1;"><g transform="translate(168.566713, 209.249986)"><path style="stroke:none" d="M 17.390625 11.78125 C 15.023438 11.78125 13 11.503906 11.3125 10.953125 C 9.625 10.410156 8.195312 9.65625 7.03125 8.6875 C 5.875 7.726562 4.941406 6.609375 4.234375 5.328125 C 3.535156 4.054688 3.007812 2.671875 2.65625 1.171875 L 11.203125 1.171875 C 11.515625 2.203125 12.207031 3 13.28125 3.5625 C 14.363281 4.132812 15.734375 4.421875 17.390625 4.421875 C 19.472656 4.421875 21.070312 3.925781 22.1875 2.9375 C 23.3125 1.957031 23.875 0.585938 23.875 -1.171875 L 23.875 -5.59375 L 23.578125 -5.59375 C 23.265625 -5.238281 22.859375 -4.835938 22.359375 -4.390625 C 21.867188 -3.941406 21.269531 -3.519531 20.5625 -3.125 C 19.863281 -2.726562 19.070312 -2.398438 18.1875 -2.140625 C 17.300781 -1.890625 16.347656 -1.765625 15.328125 -1.765625 C 13.316406 -1.765625 11.492188 -2.085938 9.859375 -2.734375 C 8.234375 -3.390625 6.84375 -4.351562 5.6875 -5.625 C 4.53125 -6.90625 3.632812 -8.476562 3 -10.34375 C 2.375 -12.207031 2.0625 -14.359375 2.0625 -16.796875 C 2.0625 -19.234375 2.375 -21.382812 3 -23.25 C 3.632812 -25.113281 4.53125 -26.679688 5.6875 -27.953125 C 6.84375 -29.234375 8.234375 -30.195312 9.859375 -30.84375 C 11.492188 -31.5 13.316406 -31.828125 15.328125 -31.828125 C 17.253906 -31.828125 18.929688 -31.394531 20.359375 -30.53125 C 21.796875 -29.664062 22.96875 -28.722656 23.875 -27.703125 L 24.171875 -27.703125 L 25.046875 -31.234375 L 32.125 -31.234375 L 32.125 -1.171875 C 32.125 2.984375 30.925781 6.179688 28.53125 8.421875 C 26.132812 10.660156 22.421875 11.78125 17.390625 11.78125 Z M 17.09375 -9.140625 C 19.175781 -9.140625 20.828125 -9.828125 22.046875 -11.203125 C 23.265625 -12.578125 23.875 -14.441406 23.875 -16.796875 C 23.875 -19.148438 23.265625 -21.015625 22.046875 -22.390625 C 20.828125 -23.765625 19.175781 -24.453125 17.09375 -24.453125 C 15.007812 -24.453125 13.359375 -23.765625 12.140625 -22.390625 C 10.921875 -21.015625 10.3125 -19.148438 10.3125 -16.796875 C 10.3125 -14.441406 10.921875 -12.578125 12.140625 -11.203125 C 13.359375 -9.828125 15.007812 -9.140625 17.09375 -9.140625 Z M 17.09375 -9.140625 "/></g></g><g style="fill:#000000;fill-opacity:1;"><g transform="translate(201.991207, 209.249986)"><path style="stroke:none" d="M 1.765625 -6.1875 L 16.203125 -23.875 L 2.359375 -23.875 L 2.359375 -31.234375 L 26.8125 -31.234375 L 26.8125 -25.046875 L 12.375 -7.375 L 27.109375 -7.375 L 27.109375 0 L 1.765625 0 Z M 1.765625 -6.1875 "/></g></g><g style="fill:#cb6ce6;fill-opacity:1;"><g transform="translate(228.639642, 209.249986)"><path style="stroke:none" d="M 12.671875 0.59375 C 10.984375 0.59375 9.460938 0.347656 8.109375 -0.140625 C 6.753906 -0.640625 5.601562 -1.320312 4.65625 -2.1875 C 3.707031 -3.050781 2.988281 -4.070312 2.5 -5.25 C 2.007812 -6.425781 1.765625 -7.722656 1.765625 -9.140625 C 1.765625 -10.546875 2.019531 -11.835938 2.53125 -13.015625 C 3.039062 -14.203125 3.804688 -15.226562 4.828125 -16.09375 C 5.847656 -16.957031 7.101562 -17.632812 8.59375 -18.125 C 10.09375 -18.613281 11.84375 -18.859375 13.84375 -18.859375 L 21.21875 -18.859375 L 21.21875 -20.328125 C 21.21875 -21.828125 20.742188 -22.9375 19.796875 -23.65625 C 18.859375 -24.382812 17.5625 -24.75 15.90625 -24.75 C 14.726562 -24.75 13.726562 -24.492188 12.90625 -23.984375 C 12.082031 -23.472656 11.515625 -22.847656 11.203125 -22.109375 L 2.953125 -22.109375 C 3.222656 -23.359375 3.703125 -24.5625 4.390625 -25.71875 C 5.078125 -26.882812 5.957031 -27.914062 7.03125 -28.8125 C 8.113281 -29.71875 9.410156 -30.445312 10.921875 -31 C 12.441406 -31.550781 14.203125 -31.828125 16.203125 -31.828125 C 20.367188 -31.828125 23.617188 -30.820312 25.953125 -28.8125 C 28.296875 -26.8125 29.46875 -23.882812 29.46875 -20.03125 L 29.46875 0 L 22.390625 0 L 21.515625 -3.53125 L 21.21875 -3.53125 C 20.90625 -3.101562 20.507812 -2.644531 20.03125 -2.15625 C 19.5625 -1.664062 18.972656 -1.210938 18.265625 -0.796875 C 17.554688 -0.378906 16.738281 -0.046875 15.8125 0.203125 C 14.894531 0.460938 13.847656 0.59375 12.671875 0.59375 Z M 14.734375 -6.1875 C 16.660156 -6.1875 18.222656 -6.726562 19.421875 -7.8125 C 20.617188 -8.894531 21.21875 -10.316406 21.21875 -12.078125 L 21.21875 -12.96875 L 14.140625 -12.96875 C 12.648438 -12.96875 11.585938 -12.648438 10.953125 -12.015625 C 10.328125 -11.390625 10.015625 -10.625 10.015625 -9.71875 C 10.015625 -8.695312 10.390625 -7.851562 11.140625 -7.1875 C 11.890625 -6.519531 13.085938 -6.1875 14.734375 -6.1875 Z M 14.734375 -6.1875 "/></g></g><g style="fill:#cb6ce6;fill-opacity:1;"><g transform="translate(259.108288, 209.249986)"><path style="stroke:none" d="M 3.53125 -31.234375 L 11.78125 -31.234375 L 11.78125 0 L 3.53125 0 Z M 7.65625 -34.484375 C 6.320312 -34.484375 5.203125 -34.929688 4.296875 -35.828125 C 3.398438 -36.734375 2.953125 -37.851562 2.953125 -39.1875 C 2.953125 -40.53125 3.398438 -41.648438 4.296875 -42.546875 C 5.203125 -43.453125 6.320312 -43.90625 7.65625 -43.90625 C 9 -43.90625 10.117188 -43.453125 11.015625 -42.546875 C 11.921875 -41.648438 12.375 -40.53125 12.375 -39.1875 C 12.375 -37.851562 11.921875 -36.734375 11.015625 -35.828125 C 10.117188 -34.929688 9 -34.484375 7.65625 -34.484375 Z M 7.65625 -34.484375 "/></g></g><g clip-rule="nonzero" clip-path="url(#34fad48d66)"><path style=" stroke:none;fill-rule:nonzero;fill:#ffffff;fill-opacity:1;" d="M 295.554688 256.121094 L 333.054688 256.121094 L 333.054688 299.480469 L 295.554688 299.480469 Z M 295.554688 256.121094 "/></g></g></svg>